<?xml version="1.0" encoding="utf-8"?>
<!-- Generator: Adobe Illustrator 24.1.3, SVG Export Plug-In . SVG Version: 6.00 Build 0)  -->
<svg version="1.1" id="Layer_1" xmlns="http://www.w3.org/2000/svg" xmlns:xlink="http://www.w3.org/1999/xlink" x="0px" y="0px"
	 viewBox="0 0 125 125" style="enable-background:new 0 0 125 125;" xml:space="preserve">
<style type="text/css">
	.st1{opacity:0.5;}
	.st2{opacity:0.65;}
</style>
<path d="M51.1,26.8c0.4-0.1,0.7-0.3,1.1-0.4C51.9,26.5,51.5,26.6,51.1,26.8z"/>
<path d="M61.8,24.3c0.5-0.1,1-0.1,1.5-0.1C62.8,24.2,62.3,24.2,61.8,24.3z"/>
<path d="M23.7,58.1c-0.1,0.3-0.1,0.6-0.2,0.9C23.6,58.8,23.7,58.5,23.7,58.1z"/>
<polygon points="57.5,60.4 44.7,87 64.6,65.1 64.7,64.9 77.6,38 57.8,59.9 "/>
<polygon points="17.6,35.9 17.6,35.9 17.6,35.9 "/>
<polygon class="st1" points="17.6,35.9 17.6,35.9 17.6,35.9 "/>
<path class="st2" d="M113.3,63.1l8.2-5c-0.4-6.2-1.8-12.3-4.2-18.1l-9.5-0.9c-1.1-0.1-1.7-1.3-1.2-2.2l4.6-8.4
	c-3.5-5.2-7.7-9.7-12.7-13.6l-8.6,4c-1,0.4-2.1-0.2-2.1-1.3l-0.2-9.5C81.9,5.4,76,3.6,69.8,2.7l-5.5,7.8c-0.3,0.4-0.8,0.6-1.3,0.6
	c-0.5,0-1-0.3-1.2-0.7l-5-8.2c-6.2,0.4-12.3,1.8-18.1,4.2l-0.9,9.5c0,0.5-0.3,0.9-0.8,1.2c-0.4,0.2-1,0.2-1.4,0l-8.4-4.6
	c-5.2,3.5-9.7,7.8-13.6,12.7l4,8.7c0.1,0.2,0.1,0.5,0.1,0.7c0,0.2-0.1,0.5-0.2,0.9c0,0,0,0.1,0,0.1c0,0.1-0.1,0.2-0.1,0.3
	c0,0,0,0,0,0v0c-0.1,0.4-0.3,0.8-0.5,1.3c-0.1,0.3-0.3,0.6-0.4,0.8c0,0,0,0,0,0c-0.1,0.1-0.1,0.2-0.2,0.3c-2.6,5.6-4,11.7-4,18.3
	c0,14.1,6.6,26.6,16.9,34.6c1.9,1.5,3.9,2.8,6,3.9c6.2,3.3,13.3,5.3,20.8,5.3c6.5,0,12.7-1.4,18.2-4c-4.1,1.6-8.6,2.5-13.2,2.5
	c-20,0-36.3-16.3-36.3-36.3c0-7,2-13.5,5.4-19.1c1.3-2.1,2.8-4,4.5-5.8c0,0,0.2-0.3,0.4-0.4c0.3-0.3,0.5-0.5,0.8-0.8
	c0.2-0.2,0.5-0.5,0.7-0.7c0.3-0.3,0.5-0.5,0.8-0.8c0.3-0.2,0.5-0.4,0.8-0.7c0.3-0.2,0.6-0.5,0.9-0.7c0.3-0.2,0.5-0.4,0.8-0.6
	c0.3-0.2,0.6-0.4,0.9-0.7c0.3-0.2,0.5-0.4,0.8-0.6c0.3-0.2,0.6-0.4,0.9-0.6c0.3-0.2,0.6-0.4,0.9-0.5c0.3-0.2,0.6-0.4,1-0.6
	c0.3-0.2,0.6-0.3,0.9-0.5c0.3-0.2,0.7-0.4,1-0.5c0.3-0.2,0.6-0.3,0.9-0.5c0.3-0.2,0.7-0.3,1-0.5c0.3-0.1,0.6-0.3,0.9-0.4
	c0.4-0.2,0.7-0.3,1.1-0.4c0.3-0.1,0.6-0.3,0.9-0.4c0.4-0.1,0.7-0.3,1.1-0.4c0.3-0.1,0.6-0.2,0.9-0.3c0.4-0.1,0.8-0.2,1.1-0.3
	c0.3-0.1,0.6-0.2,1-0.3c0.4-0.1,0.8-0.2,1.2-0.3c0.3-0.1,0.6-0.2,0.9-0.2c0.4-0.1,0.8-0.2,1.2-0.2c0.3-0.1,0.6-0.1,0.9-0.2
	c0.4-0.1,0.9-0.1,1.3-0.2c0.3,0,0.6-0.1,0.9-0.1c0.5-0.1,1-0.1,1.5-0.1c0.3,0,0.5,0,0.8-0.1c0.8,0,1.5-0.1,2.3-0.1
	c6.1,0,11.9,1.3,17.2,3.5c3.4,1.5,6.6,3.4,9.5,5.6c10.3,8,16.9,20.5,16.9,34.6c0,0.8,0,1.5-0.1,2.3c0,0.3,0,0.5-0.1,0.8
	c0,0.5-0.1,1-0.1,1.5c0,0.3-0.1,0.6-0.1,0.9c-0.1,0.4-0.1,0.9-0.2,1.3c0,0.3-0.1,0.6-0.2,0.9c-0.1,0.4-0.1,0.9-0.2,1.3
	c-0.1,0.3-0.1,0.6-0.2,0.9c-0.1,0.4-0.2,0.8-0.3,1.2c-0.1,0.3-0.2,0.6-0.3,0.9c-0.1,0.4-0.2,0.8-0.3,1.2c-0.1,0.3-0.2,0.6-0.3,0.9
	c-0.1,0.4-0.3,0.8-0.4,1.2c-0.1,0.3-0.2,0.6-0.3,0.9c-0.2,0.4-0.3,0.8-0.5,1.1c-0.1,0.3-0.3,0.6-0.4,0.9c-0.2,0.4-0.3,0.7-0.5,1.1
	c0,0.1-0.1,0.1-0.1,0.2c0,0.1-0.1,0.1-0.1,0.2c-1,2-0.9,3-0.9,3.2c0-0.3,0-0.5,0.2-0.8c0,0,0-0.1,0.1-0.1c0.1-0.1,0.1-0.2,0.2-0.3
	c0.3-0.3,0.6-0.4,1-0.4l9.6-0.2c2.7-5.6,4.6-11.6,5.4-17.8l-7.8-5.5C112.3,65,112.4,63.7,113.3,63.1z M23.5,59.1
	c0.1-0.3,0.1-0.6,0.2-0.9C23.7,58.5,23.6,58.8,23.5,59.1z"/>
<path d="M105.4,87.4c0-0.1,0.1-0.2,0.1-0.2c0-0.1,0.1-0.1,0.1-0.2c0.2-0.4,0.3-0.7,0.5-1.1c0.1-0.3,0.3-0.6,0.4-0.9
	c0.2-0.4,0.3-0.8,0.5-1.1c0.1-0.3,0.2-0.6,0.3-0.9c0.1-0.4,0.3-0.8,0.4-1.2c0.1-0.3,0.2-0.6,0.3-0.9c0.1-0.4,0.2-0.8,0.3-1.2
	c0.1-0.3,0.2-0.6,0.3-0.9c0.1-0.4,0.2-0.8,0.3-1.2c0.1-0.3,0.1-0.6,0.2-0.9c0.1-0.4,0.2-0.8,0.2-1.3c0.1-0.3,0.1-0.6,0.2-0.9
	c0.1-0.4,0.1-0.9,0.2-1.3c0-0.3,0.1-0.6,0.1-0.9c0.1-0.5,0.1-1,0.1-1.5c0-0.3,0-0.5,0.1-0.8c0-0.8,0.1-1.5,0.1-2.3
	c0-14.1-6.6-26.6-16.9-34.6c-2.9-2.3-6.1-4.2-9.5-5.6C78.3,25.3,72.5,24,66.4,24c-0.8,0-1.5,0-2.3,0.1c-0.3,0-0.5,0-0.8,0.1
	c-0.5,0-1,0.1-1.5,0.1c-0.3,0-0.6,0.1-0.9,0.1c-0.4,0.1-0.9,0.1-1.3,0.2c-0.3,0-0.6,0.1-0.9,0.2c-0.4,0.1-0.8,0.1-1.2,0.2
	c-0.3,0.1-0.6,0.1-0.9,0.2c-0.4,0.1-0.8,0.2-1.2,0.3c-0.3,0.1-0.6,0.2-1,0.3c-0.4,0.1-0.8,0.2-1.1,0.3c-0.3,0.1-0.6,0.2-0.9,0.3
	c-0.4,0.1-0.7,0.3-1.1,0.4c-0.3,0.1-0.6,0.2-0.9,0.4c-0.4,0.1-0.7,0.3-1.1,0.4c-0.3,0.1-0.6,0.3-0.9,0.4c-0.3,0.2-0.7,0.3-1,0.5
	c-0.3,0.1-0.6,0.3-0.9,0.5c-0.3,0.2-0.7,0.4-1,0.5c-0.3,0.2-0.6,0.3-0.9,0.5c-0.3,0.2-0.7,0.4-1,0.6c-0.3,0.2-0.6,0.4-0.9,0.5
	c-0.3,0.2-0.6,0.4-0.9,0.6c-0.3,0.2-0.6,0.4-0.8,0.6c-0.3,0.2-0.6,0.4-0.9,0.7c-0.3,0.2-0.5,0.4-0.8,0.6c-0.3,0.2-0.6,0.5-0.9,0.7
	c-0.3,0.2-0.5,0.4-0.8,0.7c-0.3,0.2-0.6,0.5-0.8,0.8c-0.2,0.2-0.5,0.5-0.7,0.7c-0.3,0.3-0.5,0.5-0.8,0.8c-0.1,0.1-0.4,0.4-0.4,0.4
	c6.6-7,16-11.5,26.5-11.5c20,0,36.3,16.3,36.3,36.3c0,6.9-1.9,13.3-5.2,18.8c-0.1,0.2-0.3,0.4-0.4,0.6c-4.4,6.2-10.4,11.2-17.4,14.5
	c-5.5,2.5-11.7,4-18.2,4c-7.5,0-14.6-1.9-20.8-5.3c-2.1-1.1-4.1-2.5-6-3.9c-10.3-8-16.9-20.5-16.9-34.6c0-6.5,1.4-12.7,4-18.3
	c0-0.1,0.1-0.2,0.2-0.3c0,0,0,0,0,0c0.1-0.3,0.3-0.6,0.4-0.8c0.2-0.5,0.4-0.9,0.5-1.3c0,0,0,0,0,0c0-0.1,0.1-0.2,0.1-0.3
	c0,0,0-0.1,0-0.1c0.1-0.4,0.1-0.7,0.2-0.9c0,0.3-0.2,0.6-0.4,0.9c0,0,0,0.1-0.1,0.1c-0.3,0.2-0.6,0.4-1,0.4l-9.5,0.2
	c-2.7,5.6-4.5,11.6-5.4,17.8l7.8,5.5c0.4,0.3,0.6,0.8,0.6,1.3c0,0.5-0.3,1-0.7,1.2l-8.2,5c0.4,6.2,1.8,12.3,4.2,18.1l9.5,0.9
	c0.5,0,0.9,0.3,1.2,0.8c0.2,0.4,0.2,1,0,1.4l-4.6,8.3c3.5,5.1,7.7,9.7,12.6,13.6l8.7-4c0.5-0.2,1-0.2,1.4,0.1
	c0.4,0.3,0.7,0.7,0.7,1.2l0.2,9.6c5.6,2.7,11.5,4.6,17.7,5.4l5.5-7.8c0.3-0.4,0.8-0.6,1.3-0.6c0.5,0,1,0.3,1.2,0.7l5,8.2
	c6.2-0.4,12.3-1.8,18.1-4.2l0.9-9.5c0.1-1.1,1.3-1.7,2.2-1.2l8.4,4.6c5.2-3.5,9.7-7.8,13.6-12.7l-4-8.6c-0.1-0.2-0.1-0.3-0.1-0.5
	l0,0c0,0,0,0,0,0c0,0,0,0,0,0C104.5,90.4,104.4,89.4,105.4,87.4z"/>
</svg>
